<svg width="31" height="31" viewBox="0 0 31 31" fill="none" xmlns="http://www.w3.org/2000/svg">
<path d="M13.2891 12.2842C12.8909 12.5504 12.5491 12.8923 12.2832 13.2906C12.0172 13.6889 11.8323 14.1356 11.739 14.6054C11.5505 15.554 11.7466 16.5387 12.2842 17.3428C12.8217 18.1468 13.6567 18.7044 14.6054 18.8929C15.554 19.0813 16.5387 18.8852 17.3428 18.3477C18.1468 17.8101 18.7044 16.9751 18.8929 16.0265C19.0813 15.0778 18.8852 14.0931 18.3477 13.2891C17.8101 12.485 16.9751 11.9274 16.0265 11.739C15.0778 11.5505 14.0931 11.7466 13.2891 12.2842ZM23.0166 7.6084C22.6611 7.25293 22.2305 6.97266 21.7588 6.78809C20.5215 6.30273 17.8213 6.32324 16.0781 6.34375C15.7979 6.34375 15.5381 6.35059 15.3125 6.35059C15.0869 6.35059 14.8203 6.35059 14.5332 6.34375C12.79 6.32324 10.1035 6.2959 8.86621 6.78809C8.39453 6.97266 7.9707 7.25293 7.6084 7.6084C7.24609 7.96387 6.97266 8.39453 6.78809 8.86621C6.30273 10.1035 6.33008 12.8105 6.34375 14.5537C6.34375 14.834 6.35059 15.0938 6.35059 15.3125C6.35059 15.5312 6.35059 15.791 6.34375 16.0713C6.33008 17.8145 6.30273 20.5215 6.78809 21.7588C6.97266 22.2305 7.25293 22.6543 7.6084 23.0166C7.96387 23.3789 8.39453 23.6523 8.86621 23.8369C10.1035 24.3223 12.8037 24.3018 14.5469 24.2812C14.8271 24.2812 15.0869 24.2744 15.3125 24.2744C15.5381 24.2744 15.8047 24.2744 16.0918 24.2812C17.835 24.3018 20.5215 24.3291 21.7588 23.8369C22.2305 23.6523 22.6543 23.3721 23.0166 23.0166C23.3789 22.6611 23.6523 22.2305 23.8369 21.7588C24.3291 20.5283 24.3018 17.835 24.2812 16.085C24.2812 15.7979 24.2744 15.5312 24.2744 15.3057C24.2744 15.0801 24.2744 14.8203 24.2812 14.5264C24.3018 12.7832 24.3291 10.0898 23.8369 8.85254C23.6523 8.38086 23.3721 7.95703 23.0166 7.59473V7.6084ZM18.4297 10.6504C19.6662 11.4771 20.5236 12.7612 20.8133 14.2201C21.103 15.679 20.8013 17.1932 19.9746 18.4297C19.5653 19.0419 19.0393 19.5675 18.4268 19.9765C17.8143 20.3855 17.1273 20.6698 16.4049 20.8133C14.946 21.103 13.4318 20.8013 12.1953 19.9746C10.9588 19.1488 10.1011 17.8656 9.81071 16.4073C9.52034 14.9491 9.82115 13.4352 10.647 12.1987C11.4728 10.9623 12.756 10.1045 14.2142 9.81412C15.6725 9.52375 17.1864 9.82457 18.4229 10.6504H18.4297ZM20.4258 10.5615C20.2139 10.418 20.043 10.2129 19.9404 9.97363C19.8379 9.73438 19.8174 9.47461 19.8652 9.21484C19.9131 8.95508 20.043 8.72949 20.2207 8.54492C20.3984 8.36035 20.6377 8.2373 20.8906 8.18945C21.1436 8.1416 21.4102 8.16211 21.6494 8.26465C21.8887 8.36719 22.0938 8.53125 22.2373 8.74316C22.3809 8.95508 22.4561 9.20801 22.4561 9.46777C22.4561 9.63867 22.4219 9.80957 22.3604 9.9668C22.2988 10.124 22.1963 10.2676 22.0801 10.3906C21.9639 10.5137 21.8135 10.6094 21.6562 10.6777C21.499 10.7461 21.3281 10.7803 21.1572 10.7803C20.8975 10.7803 20.6445 10.7051 20.4326 10.5615H20.4258ZM30.625 4.375C30.625 1.96191 28.6631 0 26.25 0H4.375C1.96191 0 0 1.96191 0 4.375V26.25C0 28.6631 1.96191 30.625 4.375 30.625H26.25C28.6631 30.625 30.625 28.6631 30.625 26.25V4.375ZM24.4043 24.4043C23.126 25.6826 21.5742 26.0859 19.8242 26.1748C18.0195 26.2773 12.6055 26.2773 10.8008 26.1748C9.05078 26.0859 7.49902 25.6826 6.2207 24.4043C4.94238 23.126 4.53906 21.5742 4.45703 19.8242C4.35449 18.0195 4.35449 12.6055 4.45703 10.8008C4.5459 9.05078 4.94238 7.49902 6.2207 6.2207C7.49902 4.94238 9.05762 4.53906 10.8008 4.45703C12.6055 4.35449 18.0195 4.35449 19.8242 4.45703C21.5742 4.5459 23.126 4.94238 24.4043 6.2207C25.6826 7.49902 26.0859 9.05078 26.168 10.8008C26.2705 12.5986 26.2705 18.0059 26.168 19.8174C26.0791 21.5674 25.6826 23.1191 24.4043 24.3975V24.4043Z" fill="#5A7C98"/>
</svg>
