<svg width="31" height="31" viewBox="0 0 31 31" fill="none" xmlns="http://www.w3.org/2000/svg">
<path d="M28.4375 0H2.18066C0.977539 0 0 0.991211 0 2.20801V28.417C0 29.6338 0.977539 30.625 2.18066 30.625H28.4375C29.6406 30.625 30.625 29.6338 30.625 28.417V2.20801C30.625 0.991211 29.6406 0 28.4375 0ZM9.25586 26.25H4.7168V11.6348H9.2627V26.25H9.25586ZM6.98633 9.63867C5.53027 9.63867 4.35449 8.45605 4.35449 7.00684C4.35449 5.55762 5.53027 4.375 6.98633 4.375C8.43555 4.375 9.61816 5.55762 9.61816 7.00684C9.61816 8.46289 8.44238 9.63867 6.98633 9.63867ZM26.2705 26.25H21.7314V19.1406C21.7314 17.4453 21.6973 15.2646 19.373 15.2646C17.0078 15.2646 16.6455 17.1104 16.6455 19.0176V26.25H12.1064V11.6348H16.4609V13.6309H16.5225C17.1309 12.4824 18.6143 11.2725 20.8223 11.2725C25.416 11.2725 26.2705 14.3008 26.2705 18.2383V26.25Z" fill="#5A7C98"/>
</svg>
