<svg xmlns="http://www.w3.org/2000/svg" width="97" height="100" viewBox="0 0 1334 1334" version="1.1"><path d="M 258.326 186.007 C 250.294 187.667, 246.822 190.339, 243.117 197.710 L 241 201.920 241 415.960 L 241 629.999 243.709 634.852 C 245.199 637.521, 248.012 640.783, 249.959 642.102 L 253.500 644.500 330.999 644.768 C 386.853 644.962, 409.259 644.721, 411.224 643.907 C 412.723 643.286, 415.722 640.855, 417.888 638.505 C 422.972 632.990, 423.255 630.669, 422.831 598 C 422.483 571.228, 422.355 570.424, 417.594 565.203 C 416.442 563.940, 413.700 561.915, 411.500 560.703 C 407.622 558.567, 406.507 558.496, 375 558.379 C 357.125 558.313, 341.947 558.201, 341.271 558.129 C 340.306 558.028, 339.984 519.603, 339.771 378.750 C 339.522 214.144, 339.365 199.255, 337.845 196.500 C 335.589 192.411, 332.236 189.437, 327.486 187.313 C 323.979 185.744, 319.837 185.506, 293 185.337 C 276.225 185.231, 260.622 185.532, 258.326 186.007" stroke="none" fill="#000670" fill-rule="evenodd"/><path d="M 235.391 689.947 C 233.681 690.356, 230.640 691.997, 228.632 693.595 C 221.397 699.354, 221.923 680.744, 222.226 920.578 L 222.500 1136.656 225.317 1140.348 C 230.912 1147.685, 229.914 1147.500, 263.956 1147.500 C 294.420 1147.500, 294.508 1147.494, 297.616 1145.161 C 299.329 1143.875, 301.724 1141.057, 302.936 1138.900 L 305.141 1134.977 305.142 1036.239 C 305.143 981.932, 305.505 936.600, 305.945 935.500 C 306.581 933.914, 307.166 934.948, 308.771 940.500 C 309.885 944.350, 311.560 951.325, 312.494 956 C 313.428 960.675, 314.816 966.300, 315.578 968.500 C 316.341 970.700, 317.628 976.100, 318.438 980.500 C 319.247 984.900, 320.645 991.650, 321.543 995.500 C 322.442 999.350, 323.573 1004.525, 324.057 1007 C 324.541 1009.475, 325.608 1013.975, 326.428 1017 C 327.248 1020.025, 328.666 1026.550, 329.579 1031.500 C 330.491 1036.450, 331.824 1042.075, 332.541 1044 C 333.257 1045.925, 334.829 1052.900, 336.033 1059.500 C 337.237 1066.100, 338.800 1073.075, 339.506 1075 C 340.213 1076.925, 341.319 1081.875, 341.965 1086 C 342.610 1090.125, 344.185 1097.325, 345.464 1102 C 346.743 1106.675, 348.533 1114.100, 349.443 1118.500 C 352.201 1131.842, 352.887 1133.677, 357.117 1139.029 C 364.051 1147.801, 364.761 1147.953, 399.093 1147.978 C 428.116 1148, 428.770 1147.955, 433.061 1145.686 C 436.485 1143.875, 438.095 1142.083, 440.468 1137.436 L 443.500 1131.500 443.710 1029 L 443.920 926.500 441.732 919 C 439.835 912.498, 439.496 908.507, 439.184 889 C 438.822 866.360, 439.883 853.285, 442.513 848 C 443.473 846.071, 443.724 829.752, 443.614 776.500 C 443.481 712.548, 443.339 707.157, 441.663 702.814 C 440.669 700.237, 438.651 696.916, 437.178 695.435 C 431.220 689.442, 431.667 689.527, 404.060 689.172 C 390.017 688.992, 376.573 689.137, 374.185 689.495 C 369.087 690.259, 362.902 695.312, 359.928 701.142 C 358.061 704.800, 358 708.172, 358 807.019 C 358 902.742, 357.588 918.178, 355.435 903.227 C 355.060 900.627, 354.185 897.104, 353.490 895.398 C 352.795 893.692, 351.929 890.317, 351.567 887.898 C 351.204 885.479, 350.498 881.475, 349.999 879 C 349.499 876.525, 348.360 870.450, 347.468 865.500 C 346.576 860.550, 345.006 853.350, 343.979 849.500 C 342.953 845.650, 341.358 838, 340.436 832.500 C 339.514 827, 338.108 820.025, 337.311 817 C 335.384 809.682, 333.143 798.881, 332.020 791.500 C 331.518 788.200, 330.155 781.450, 328.991 776.500 C 327.827 771.550, 326.249 764.125, 325.484 760 C 324.720 755.875, 323.131 748.225, 321.953 743 C 319.151 730.561, 317.168 720.845, 315.988 713.763 C 314.147 702.723, 305.567 691.852, 297.149 689.896 C 292.707 688.863, 239.745 688.907, 235.391 689.947" stroke="none" fill="#00a077" fill-rule="evenodd"/><path d="M 634.646 187.106 C 629.748 188.257, 625.385 191.354, 623.485 195.029 C 621.539 198.792, 621.531 212.014, 623.469 222.500 C 628.660 250.594, 630.496 261.653, 631.936 273.500 C 632.404 277.350, 633.339 281.850, 634.013 283.500 C 634.687 285.150, 635.619 290.100, 636.085 294.500 C 637.037 303.508, 638.911 315.827, 642.016 333.500 C 643.176 340.100, 644.544 348.650, 645.057 352.500 C 645.569 356.350, 646.436 361.750, 646.983 364.500 C 647.531 367.250, 648.914 375.575, 650.059 383 C 651.203 390.425, 652.739 399.425, 653.473 403 C 654.207 406.575, 655.115 412.142, 655.491 415.371 C 655.867 418.600, 656.810 423.044, 657.587 425.247 C 658.364 427.449, 659 430.827, 659 432.752 C 659 436.361, 660.696 447.691, 663.978 466 C 665.013 471.775, 666.379 480.100, 667.014 484.500 C 667.648 488.900, 669.028 497.225, 670.080 503 C 671.133 508.775, 672.866 519.350, 673.933 526.500 C 677.436 549.980, 678.173 554.403, 680.017 563 C 681.020 567.675, 682.059 573.525, 682.325 576 C 683.001 582.291, 684.832 593.736, 687.043 605.500 C 688.077 611, 689.471 618.807, 690.141 622.849 C 691.582 631.546, 694.949 637.236, 701.209 641.545 L 705.500 644.500 741.860 644.786 C 777.186 645.064, 778.345 645.012, 782.607 642.948 C 793.863 637.499, 797.923 626.435, 800.938 593 C 801.310 588.875, 802.131 584.375, 802.764 583 C 803.777 580.799, 805.496 570.971, 808.012 553 C 808.436 549.975, 809.526 543.450, 810.435 538.500 C 811.345 533.550, 812.744 525.900, 813.545 521.500 C 814.346 517.100, 815.001 511.957, 815.001 510.071 C 815 508.185, 815.429 505.260, 815.953 503.571 C 818.512 495.328, 822.022 472.989, 823.820 453.500 C 824.226 449.100, 825.117 444.500, 825.800 443.278 C 827.027 441.080, 829.582 426.643, 830.627 416 C 830.924 412.975, 831.986 406.675, 832.986 402 C 835.069 392.272, 836.961 381.195, 838.024 372.500 C 838.428 369.200, 839.511 362.450, 840.432 357.500 C 842.952 343.953, 844.804 332.454, 845.991 323 C 846.577 318.325, 847.959 310.632, 849.060 305.904 C 850.924 297.901, 851.788 292.352, 853.950 274.500 C 854.416 270.650, 855.477 264.800, 856.307 261.500 C 857.774 255.672, 859.552 244.281, 861.066 231 C 861.474 227.425, 862.510 221.575, 863.368 218 C 865.313 209.904, 865.425 200.954, 863.636 196.671 C 861.687 192.008, 856.855 188.349, 850.980 187.089 C 844.548 185.710, 791.098 185.680, 785.146 187.053 C 779.298 188.401, 774.627 192.158, 771.086 198.361 C 767.982 203.797, 767.028 210.017, 765.007 238 C 764.550 244.325, 763.500 254.450, 762.673 260.500 C 761.055 272.345, 759.392 289.340, 757.975 308.500 C 756.907 322.952, 753.255 358.103, 752.495 361.250 C 752.195 362.487, 751.528 369.350, 751.012 376.500 C 749.416 398.596, 747.168 422.262, 746.167 427.500 C 745.642 430.250, 744.897 436.887, 744.513 442.249 C 744.128 447.610, 743.442 452.227, 742.987 452.508 C 742.533 452.789, 741.898 449.977, 741.576 446.259 C 741.253 442.542, 740.539 436.125, 739.988 432 C 739.437 427.875, 738.981 421.800, 738.973 418.500 C 738.966 415.200, 738.522 409.575, 737.987 406 C 737.452 402.425, 736.325 391.811, 735.484 382.412 C 734.642 373.014, 733.514 363.792, 732.977 361.919 C 732.440 360.046, 731.980 354.235, 731.956 349.007 C 731.932 343.778, 731.495 337.475, 730.985 335 C 730.475 332.525, 729.583 323.750, 729.003 315.500 C 728.423 307.250, 727.500 297.800, 726.950 294.500 C 726.401 291.200, 725.531 282.875, 725.018 276 C 722.456 241.703, 721.016 226.166, 720.192 223.945 C 719.693 222.600, 718.975 217.279, 718.597 212.121 C 717.804 201.320, 716.055 197.089, 710.189 191.790 C 707.500 189.360, 704.579 187.861, 701.067 187.108 C 694.845 185.773, 640.325 185.772, 634.646 187.106 M 924.691 186.967 C 919.498 187.972, 912.979 192.760, 910.300 197.536 C 909.081 199.709, 907.775 203.952, 907.399 206.963 C 907.023 209.975, 906.089 213.936, 905.324 215.767 C 904.559 217.598, 903.510 222.112, 902.993 225.798 C 901.347 237.529, 899.206 251.141, 897.063 263.500 C 895.919 270.100, 894.546 278.650, 894.012 282.500 C 893.478 286.350, 892.801 290.501, 892.508 291.724 C 891.430 296.223, 887.701 317.680, 886.986 323.500 C 885.219 337.884, 883.749 346.862, 882.350 351.828 C 881.524 354.758, 880.448 360.608, 879.959 364.828 C 878.088 380.955, 877.078 387.602, 876.057 390.500 C 875.017 393.453, 872.656 407.774, 870.946 421.500 C 870.466 425.350, 869.597 430.525, 869.013 433 C 867.684 438.643, 865.041 453.594, 863.976 461.500 C 862.245 474.350, 858.957 494.261, 858.423 495.125 C 858.114 495.625, 857.462 499.514, 856.973 503.767 C 855.054 520.489, 853.934 527.704, 852.515 532.500 C 851.075 537.362, 850.029 543.917, 848.029 560.610 C 847.494 565.071, 846.568 570.005, 845.972 571.574 C 844.817 574.611, 842.360 588.931, 841.009 600.500 C 840.560 604.350, 839.422 611.663, 838.481 616.751 C 835.576 632.453, 837.845 639.948, 846.611 643.611 C 851.568 645.682, 916.394 645.609, 920 643.528 C 921.375 642.735, 923.400 641.668, 924.500 641.158 C 927.206 639.902, 929.216 637.362, 931.745 632 C 933.433 628.423, 934.192 623.499, 935.447 608 C 936.315 597.275, 937.019 586.393, 937.012 583.817 C 937.002 579.892, 937.349 579.024, 939.159 578.449 C 941.775 577.619, 976.685 577.687, 978.040 578.525 C 978.568 578.851, 979.001 582.354, 979.002 586.309 C 979.004 593.048, 981.180 617.709, 982.613 627.231 C 983.494 633.088, 986.057 636.982, 991.708 641.051 L 996.500 644.500 1033 644.500 L 1069.500 644.500 1073.145 641.712 C 1078.357 637.724, 1079.348 634.594, 1078.676 624.248 C 1077.992 613.710, 1075.687 599.622, 1073.973 595.500 C 1073.287 593.850, 1072.380 589.125, 1071.959 585 C 1070.791 573.572, 1069.259 563.239, 1067.585 555.500 C 1064.938 543.261, 1063 531.270, 1063 527.136 C 1063 524.933, 1062.539 521.919, 1061.976 520.438 C 1061.413 518.957, 1060.033 511.615, 1058.909 504.123 C 1057.785 496.630, 1056.486 488.025, 1056.021 485 C 1055.557 481.975, 1054.468 474.855, 1053.603 469.178 C 1052.737 463.501, 1051.791 458.471, 1051.501 458.002 C 1050.934 457.084, 1048.496 442.215, 1046.910 430 C 1046.374 425.875, 1045.284 420.475, 1044.487 418 C 1043.143 413.827, 1041.942 406.205, 1040.074 390 C 1039.382 384, 1038.347 378.101, 1034.455 357.977 C 1033.655 353.840, 1033 349.115, 1033.001 347.477 C 1033.002 344.332, 1030.857 331.873, 1028.442 321 C 1027.648 317.425, 1026.569 311.350, 1026.044 307.500 C 1023.891 291.723, 1022 279.808, 1021.527 279.044 C 1021.011 278.208, 1018.446 262.304, 1017.053 251.291 C 1016.620 247.875, 1015.553 242.025, 1014.681 238.291 C 1013.241 232.123, 1012.579 228.240, 1010.027 211 C 1008.102 197.992, 1001.211 189.444, 990.695 187.017 C 985.868 185.903, 930.406 185.861, 924.691 186.967 M 957.682 363.652 C 957.307 364.027, 956.989 367.521, 956.976 371.417 C 956.963 375.313, 956.512 380.300, 955.973 382.500 C 955.435 384.700, 954.301 394.825, 953.454 405 C 952.607 415.175, 951.282 430.925, 950.509 440 C 949.736 449.075, 948.622 462.350, 948.032 469.500 C 947.443 476.650, 946.497 485.425, 945.930 489 C 945.362 492.575, 944.631 497.233, 944.304 499.351 C 943.883 502.077, 944.117 503.461, 945.105 504.086 C 946.962 505.262, 969.724 505.256, 970.451 504.079 C 970.764 503.573, 970.288 494.235, 969.393 483.329 C 968.498 472.423, 967.417 457.650, 966.991 450.500 C 966.565 443.350, 965.493 433.973, 964.608 429.662 C 963.724 425.351, 962.991 418.376, 962.979 414.162 C 962.968 409.948, 962.307 401.100, 961.510 394.500 C 960.714 387.900, 960.041 378.675, 960.016 374 C 959.971 365.861, 959.143 362.190, 957.682 363.652" stroke="none" fill="#ffb901" fill-rule="evenodd"/><path d="M 991.777 684.009 C 987.530 684.499, 983.255 685.314, 982.277 685.819 C 981.300 686.324, 978.700 687.043, 976.500 687.417 C 969.471 688.613, 962.551 691.137, 960.804 693.142 C 959.871 694.212, 958.859 695.068, 958.554 695.044 C 956.014 694.843, 954.422 695.617, 948.387 699.988 C 940.370 705.794, 941.330 704.943, 932.947 713.675 C 925.608 721.319, 918.216 731.475, 915.604 737.500 C 914.651 739.700, 913.047 743.075, 912.040 745 C 911.033 746.925, 909.517 751.650, 908.672 755.500 C 907.826 759.350, 906.345 766.100, 905.381 770.500 C 902.876 781.931, 902.779 848.785, 905.257 856.500 C 906.140 859.250, 907.159 863.525, 907.521 866 C 908.444 872.315, 910.723 878.832, 913.034 881.771 C 914.115 883.145, 915 884.721, 915 885.273 C 915 887.675, 927.134 901.780, 937.327 911.226 C 943.424 916.877, 949.332 922.428, 950.456 923.563 C 951.580 924.697, 955.583 928.219, 959.352 931.388 C 963.120 934.557, 969.613 940.379, 973.779 944.325 C 983.848 953.862, 983.810 953.828, 990.063 958.981 C 998.715 966.112, 1012.848 980.096, 1016.359 985 C 1018.131 987.475, 1020.125 991.107, 1020.790 993.071 C 1022.363 997.712, 1022.506 1061.798, 1020.952 1065.203 C 1019.287 1068.849, 1013.616 1072, 1008.717 1072 C 1005.050 1072, 1003.857 1071.438, 1000.729 1068.234 C 997.162 1064.581, 997.047 1064.233, 996.899 1056.585 C 996.791 1050.978, 996.470 1049.195, 995.790 1050.412 C 995.263 1051.352, 995.081 1052.769, 995.385 1053.561 C 995.689 1054.352, 995.501 1055, 994.969 1055 C 993.831 1055, 993.896 1055.538, 993.358 1041.500 C 992.547 1020.292, 995.137 992.845, 996.261 1010.750 C 996.541 1015.211, 996.664 1014.538, 996.811 1007.750 C 996.942 1001.702, 996.653 999.077, 995.875 999.250 C 995.256 999.387, 994.523 998.875, 994.245 998.111 C 993.936 997.260, 994.178 996.992, 994.870 997.420 C 996.714 998.559, 996.181 995.086, 993.905 991.136 C 991.062 986.203, 986.656 982.866, 981.660 981.864 C 973.690 980.265, 934.071 979.614, 924.995 980.933 C 913.568 982.593, 910.897 984.407, 906.359 993.587 L 902.678 1001.037 903.358 1032.268 C 903.733 1049.446, 904.515 1065.300, 905.097 1067.500 C 905.679 1069.700, 906.742 1075.100, 907.460 1079.500 C 908.177 1083.900, 909.207 1088.850, 909.748 1090.500 C 911.437 1095.654, 920.340 1111.980, 923.487 1115.696 C 924.044 1116.354, 926.515 1119.279, 928.977 1122.196 C 938.284 1133.221, 950.003 1142.902, 960 1147.823 L 969.500 1152.500 1010.500 1152.500 L 1051.500 1152.500 1057.500 1149.661 C 1068.390 1144.509, 1070.187 1143.515, 1071.349 1142 C 1071.982 1141.175, 1073.146 1140.360, 1073.936 1140.188 C 1078.140 1139.275, 1097.767 1119.152, 1102.486 1110.916 C 1103.044 1109.943, 1104.737 1107.032, 1106.250 1104.447 C 1107.763 1101.863, 1109.014 1099.242, 1109.032 1098.624 C 1109.049 1098.006, 1109.693 1096.669, 1110.463 1095.653 C 1111.233 1094.637, 1111.625 1093.188, 1111.336 1092.432 C 1111.046 1091.677, 1111.752 1089.860, 1112.904 1088.395 C 1114.980 1085.756, 1115 1085.148, 1115 1024.487 C 1115 956.905, 1115.496 962.498, 1108.233 948.101 C 1104.204 940.116, 1092.260 927.075, 1080.205 917.500 C 1076.742 914.750, 1072.432 911.150, 1070.626 909.500 C 1068.820 907.850, 1065.194 904.700, 1062.568 902.500 C 1059.942 900.300, 1056.790 897.600, 1055.564 896.500 C 1054.338 895.400, 1051.145 892.700, 1048.467 890.500 C 1045.790 888.300, 1042.424 885.375, 1040.988 884 C 1039.552 882.625, 1035.705 879.262, 1032.438 876.526 C 1029.172 873.790, 1024.025 869.228, 1021 866.387 C 1017.975 863.546, 1013.586 859.522, 1011.248 857.445 C 1006.199 852.961, 1002.720 847.237, 1001.158 840.849 C 1000.459 837.991, 999.977 825.170, 999.907 807.609 C 999.801 781.156, 999.938 778.740, 1001.731 775.261 C 1004.350 770.179, 1008.028 768.474, 1013.913 769.614 C 1021.327 771.050, 1021.419 771.484, 1022 807.582 L 1022.500 838.663 1025.535 843.570 C 1030.719 851.949, 1033.074 852.706, 1054.321 852.823 C 1065.714 852.887, 1071.753 852.591, 1070.500 852.032 C 1069.400 851.542, 1069.026 851.109, 1069.668 851.070 C 1070.311 851.032, 1071.626 850.697, 1072.592 850.326 C 1073.945 849.807, 1074.200 850.036, 1073.705 851.326 C 1073.211 852.613, 1073.634 853, 1075.531 853 C 1076.989 853, 1078 852.423, 1078 851.590 C 1078 849.686, 1086.689 849.748, 1087.422 851.658 C 1088.108 853.446, 1091 853.383, 1091 851.579 C 1091 849.667, 1096.016 848.675, 1099.326 849.934 C 1100.797 850.493, 1102 851.213, 1102 851.534 C 1102 851.855, 1101.581 851.859, 1101.069 851.543 C 1100.557 851.226, 1099.873 851.397, 1099.549 851.921 C 1098.403 853.774, 1104.494 851.860, 1107.824 849.321 C 1110.137 847.556, 1111.020 846.184, 1110.679 844.882 C 1110.399 843.810, 1110.606 843.257, 1111.160 843.599 C 1114.495 845.660, 1116.339 832.634, 1113.668 825.872 C 1112.659 823.318, 1112.520 819.710, 1113.096 811 C 1113.602 803.339, 1113.485 798.222, 1112.746 795.671 C 1111.889 792.716, 1111.920 791.667, 1112.881 791.073 C 1114.545 790.045, 1114.921 764.863, 1113.345 760 C 1108.701 745.665, 1105.319 738.059, 1100.062 730.124 C 1098.103 727.168, 1096.005 723.897, 1095.399 722.857 C 1093.432 719.476, 1077.590 703.727, 1073.292 700.879 C 1071.756 699.861, 1069.825 698.581, 1069 698.033 C 1062.252 693.556, 1054.929 690.370, 1044.601 687.420 C 1033.512 684.252, 1031.120 683.927, 1016 683.540 C 1006.925 683.308, 996.025 683.519, 991.777 684.009 M 811.601 690.056 C 805.649 691.053, 798.895 697.070, 797.136 702.941 C 796.382 705.457, 796 718.492, 796 741.702 C 796 760.935, 795.701 799.756, 795.335 827.970 C 794.759 872.393, 794.481 879.016, 793.262 877.384 C 791.984 875.673, 791.908 875.820, 792.433 879 C 794.516 891.621, 795.082 895.462, 796.044 903.500 C 796.636 908.450, 797.750 914.656, 798.519 917.291 C 799.593 920.974, 799.680 923.362, 798.895 927.612 C 798.148 931.650, 798.183 933.516, 799.025 934.530 C 800.265 936.024, 799.505 941.587, 797.766 943.745 C 797.073 944.606, 797.279 945.776, 798.435 947.541 C 799.492 949.155, 799.850 950.897, 799.409 952.285 C 799.026 953.492, 798.761 957.280, 798.819 960.704 C 798.878 964.127, 798.468 967.211, 797.908 967.557 C 797.262 967.956, 797.470 969.069, 798.480 970.610 C 799.759 972.561, 799.866 973.766, 799.030 976.768 C 798.127 980.010, 796.948 987.867, 794.084 1009.733 C 793.644 1013.094, 793.774 1015.091, 794.449 1015.316 C 795.164 1015.555, 795.562 1033.405, 795.692 1071.083 C 795.798 1101.563, 796.165 1128.837, 796.507 1131.694 C 796.943 1135.327, 798.036 1138.033, 800.145 1140.694 C 805.616 1147.600, 804.829 1147.467, 842.340 1147.800 C 864.279 1147.994, 875.966 1147.755, 875.574 1147.119 C 874.651 1145.626, 876.907 1144.678, 878.411 1145.926 C 879.395 1146.743, 880.057 1146.636, 880.990 1145.512 C 881.680 1144.681, 882.857 1144, 883.606 1144 C 885.577 1144, 890.087 1134.505, 890.676 1129.114 C 890.953 1126.576, 890.916 1124.761, 890.593 1125.081 C 890.270 1125.400, 889.904 1126.887, 889.780 1128.386 C 889.599 1130.578, 889.346 1130.827, 888.491 1129.657 C 887.906 1128.857, 887.612 1126.271, 887.837 1123.910 C 888.212 1119.983, 888.364 1119.778, 889.623 1121.500 C 890.824 1123.141, 890.975 1122.174, 890.807 1113.941 C 890.656 1106.518, 890.539 1105.836, 890.260 1110.750 C 890.064 1114.188, 889.490 1117, 888.984 1117 C 888.477 1117, 888.350 1116.251, 888.701 1115.336 C 889.067 1114.384, 888.929 1113.926, 888.379 1114.266 C 887.850 1114.593, 887.374 1113.654, 887.321 1112.180 C 887.268 1110.706, 887.109 1108.150, 886.967 1106.500 C 886.684 1103.199, 887.560 1092.302, 888.737 1084.500 L 889.491 1079.500 890.065 1087 C 890.381 1091.125, 890.620 1062.775, 890.596 1024 C 890.572 984.088, 890.313 964.347, 890 978.500 C 889.696 992.250, 889.310 1002.600, 889.141 1001.500 C 887.078 988.006, 885.887 969.929, 886.439 960.500 C 887.262 946.471, 888.562 872.568, 888.199 860.500 C 888.033 855, 888.258 848.025, 888.699 845 C 889.211 841.487, 889.691 855.212, 890.028 883 C 890.318 906.925, 890.543 876.325, 890.528 815 C 890.497 689.656, 891.202 700.712, 882.801 693.961 C 879.354 691.190, 877.357 690.424, 872.034 689.831 C 863.273 688.855, 817.760 689.024, 811.601 690.056 M 888.572 712.942 C 887.655 714.368, 887.612 754.945, 888.527 755.860 C 889.822 757.155, 890.019 753.595, 889.770 733.397 C 889.598 719.466, 889.162 712.025, 888.572 712.942 M 888.929 762.750 C 888.890 764.813, 888.718 773.025, 888.547 781 C 887.965 808.084, 888.042 819.482, 888.871 829 C 889.473 835.904, 889.740 827.636, 889.849 798.750 C 889.932 776.888, 889.775 759, 889.500 759 C 889.225 759, 888.968 760.688, 888.929 762.750 M 904.370 809 C 904.370 814.775, 904.535 817.138, 904.737 814.250 C 904.939 811.362, 904.939 806.638, 904.737 803.750 C 904.535 800.862, 904.370 803.225, 904.370 809 M 441.250 858.193 C 440.563 860.774, 440 863.686, 440 864.665 C 440 866.182, 440.231 866.116, 441.557 864.221 C 442.536 862.825, 443.001 860.418, 442.807 857.749 L 442.500 853.500 441.250 858.193 M 440.202 890.055 C 440.011 909.516, 440.129 910.980, 442.426 917.555 C 443.760 921.375, 444.880 923.600, 444.915 922.500 C 444.950 921.400, 444.217 918.250, 443.287 915.500 C 442.020 911.756, 441.446 905.352, 440.999 890 L 440.403 869.500 440.202 890.055 M 888.607 1006.582 C 887.554 1009.327, 887.912 1038, 889 1038 C 889.626 1038, 890 1031.833, 890 1021.500 C 890 1012.425, 889.823 1005, 889.607 1005 C 889.391 1005, 888.941 1005.712, 888.607 1006.582 M 889.360 1051 C 889.360 1056.225, 889.529 1058.362, 889.735 1055.750 C 889.941 1053.138, 889.941 1048.862, 889.735 1046.250 C 889.529 1043.638, 889.360 1045.775, 889.360 1051" stroke="none" fill="#ff8500" fill-rule="evenodd"/><path d="M 991.777 684.009 C 987.530 684.499, 983.255 685.314, 982.277 685.819 C 981.300 686.324, 978.700 687.043, 976.500 687.417 C 969.471 688.613, 962.551 691.137, 960.804 693.142 C 959.871 694.212, 958.859 695.068, 958.554 695.044 C 956.014 694.843, 954.422 695.617, 948.387 699.988 C 940.370 705.794, 941.330 704.943, 932.947 713.675 C 925.608 721.319, 918.216 731.475, 915.604 737.500 C 914.651 739.700, 913.047 743.075, 912.040 745 C 911.033 746.925, 909.517 751.650, 908.672 755.500 C 907.826 759.350, 906.345 766.100, 905.381 770.500 C 902.876 781.931, 902.779 848.785, 905.257 856.500 C 906.140 859.250, 907.159 863.525, 907.521 866 C 908.444 872.315, 910.723 878.832, 913.034 881.771 C 914.115 883.145, 915 884.721, 915 885.273 C 915 887.675, 927.134 901.780, 937.327 911.226 C 943.424 916.877, 949.332 922.428, 950.456 923.563 C 951.580 924.697, 955.583 928.219, 959.352 931.388 C 963.120 934.557, 969.613 940.379, 973.779 944.325 C 983.848 953.862, 983.810 953.828, 990.063 958.981 C 998.715 966.112, 1012.848 980.096, 1016.359 985 C 1018.131 987.475, 1020.125 991.107, 1020.790 993.071 C 1022.363 997.712, 1022.506 1061.798, 1020.952 1065.203 C 1019.287 1068.849, 1013.616 1072, 1008.717 1072 C 1005.050 1072, 1003.857 1071.438, 1000.729 1068.234 C 997.162 1064.581, 997.047 1064.233, 996.899 1056.585 C 996.791 1050.978, 996.470 1049.195, 995.790 1050.412 C 995.263 1051.352, 995.081 1052.769, 995.385 1053.561 C 995.689 1054.352, 995.501 1055, 994.969 1055 C 993.831 1055, 993.896 1055.538, 993.358 1041.500 C 992.547 1020.292, 995.137 992.845, 996.261 1010.750 C 996.541 1015.211, 996.664 1014.538, 996.811 1007.750 C 996.942 1001.702, 996.653 999.077, 995.875 999.250 C 995.256 999.387, 994.523 998.875, 994.245 998.111 C 993.936 997.260, 994.178 996.992, 994.870 997.420 C 996.714 998.559, 996.181 995.086, 993.905 991.136 C 991.062 986.203, 986.656 982.866, 981.660 981.864 C 973.690 980.265, 934.071 979.614, 924.995 980.933 C 913.568 982.593, 910.897 984.407, 906.359 993.587 L 902.678 1001.037 903.358 1032.268 C 903.733 1049.446, 904.515 1065.300, 905.097 1067.500 C 905.679 1069.700, 906.742 1075.100, 907.460 1079.500 C 908.177 1083.900, 909.207 1088.850, 909.748 1090.500 C 911.437 1095.654, 920.340 1111.980, 923.487 1115.696 C 924.044 1116.354, 926.515 1119.279, 928.977 1122.196 C 938.284 1133.221, 950.003 1142.902, 960 1147.823 L 969.500 1152.500 1010.500 1152.500 L 1051.500 1152.500 1057.500 1149.661 C 1068.390 1144.509, 1070.187 1143.515, 1071.349 1142 C 1071.982 1141.175, 1073.146 1140.360, 1073.936 1140.188 C 1078.140 1139.275, 1097.767 1119.152, 1102.486 1110.916 C 1103.044 1109.943, 1104.737 1107.032, 1106.250 1104.447 C 1107.763 1101.863, 1109.014 1099.242, 1109.032 1098.624 C 1109.049 1098.006, 1109.693 1096.669, 1110.463 1095.653 C 1111.233 1094.637, 1111.625 1093.188, 1111.336 1092.432 C 1111.046 1091.677, 1111.752 1089.860, 1112.904 1088.395 C 1114.980 1085.756, 1115 1085.148, 1115 1024.487 C 1115 956.905, 1115.496 962.498, 1108.233 948.101 C 1104.204 940.116, 1092.260 927.075, 1080.205 917.500 C 1076.742 914.750, 1072.432 911.150, 1070.626 909.500 C 1068.820 907.850, 1065.194 904.700, 1062.568 902.500 C 1059.942 900.300, 1056.790 897.600, 1055.564 896.500 C 1054.338 895.400, 1051.145 892.700, 1048.467 890.500 C 1045.790 888.300, 1042.424 885.375, 1040.988 884 C 1039.552 882.625, 1035.705 879.262, 1032.438 876.526 C 1029.172 873.790, 1024.025 869.228, 1021 866.387 C 1017.975 863.546, 1013.586 859.522, 1011.248 857.445 C 1006.199 852.961, 1002.720 847.237, 1001.158 840.849 C 1000.459 837.991, 999.977 825.170, 999.907 807.609 C 999.801 781.156, 999.938 778.740, 1001.731 775.261 C 1004.350 770.179, 1008.028 768.474, 1013.913 769.614 C 1021.327 771.050, 1021.419 771.484, 1022 807.582 L 1022.500 838.663 1025.535 843.570 C 1030.719 851.949, 1033.074 852.706, 1054.321 852.823 C 1065.714 852.887, 1071.753 852.591, 1070.500 852.032 C 1069.400 851.542, 1069.026 851.109, 1069.668 851.070 C 1070.311 851.032, 1071.626 850.697, 1072.592 850.326 C 1073.945 849.807, 1074.200 850.036, 1073.705 851.326 C 1073.211 852.613, 1073.634 853, 1075.531 853 C 1076.989 853, 1078 852.423, 1078 851.590 C 1078 849.686, 1086.689 849.748, 1087.422 851.658 C 1088.108 853.446, 1091 853.383, 1091 851.579 C 1091 849.667, 1096.016 848.675, 1099.326 849.934 C 1100.797 850.493, 1102 851.213, 1102 851.534 C 1102 851.855, 1101.581 851.859, 1101.069 851.543 C 1100.557 851.226, 1099.873 851.397, 1099.549 851.921 C 1098.403 853.774, 1104.494 851.860, 1107.824 849.321 C 1110.137 847.556, 1111.020 846.184, 1110.679 844.882 C 1110.399 843.810, 1110.606 843.257, 1111.160 843.599 C 1114.495 845.660, 1116.339 832.634, 1113.668 825.872 C 1112.659 823.318, 1112.520 819.710, 1113.096 811 C 1113.602 803.339, 1113.485 798.222, 1112.746 795.671 C 1111.889 792.716, 1111.920 791.667, 1112.881 791.073 C 1114.545 790.045, 1114.921 764.863, 1113.345 760 C 1108.701 745.665, 1105.319 738.059, 1100.062 730.124 C 1098.103 727.168, 1096.005 723.897, 1095.399 722.857 C 1093.432 719.476, 1077.590 703.727, 1073.292 700.879 C 1071.756 699.861, 1069.825 698.581, 1069 698.033 C 1062.252 693.556, 1054.929 690.370, 1044.601 687.420 C 1033.512 684.252, 1031.120 683.927, 1016 683.540 C 1006.925 683.308, 996.025 683.519, 991.777 684.009 M 811.601 690.056 C 805.649 691.053, 798.895 697.070, 797.136 702.941 C 796.382 705.457, 796 718.492, 796 741.702 C 796 760.935, 795.701 799.756, 795.335 827.970 C 794.759 872.393, 794.481 879.016, 793.262 877.384 C 791.984 875.673, 791.908 875.820, 792.433 879 C 794.516 891.621, 795.082 895.462, 796.044 903.500 C 796.636 908.450, 797.750 914.656, 798.519 917.291 C 799.593 920.974, 799.680 923.362, 798.895 927.612 C 798.148 931.650, 798.183 933.516, 799.025 934.530 C 800.265 936.024, 799.505 941.587, 797.766 943.745 C 797.073 944.606, 797.279 945.776, 798.435 947.541 C 799.492 949.155, 799.850 950.897, 799.409 952.285 C 799.026 953.492, 798.761 957.280, 798.819 960.704 C 798.878 964.127, 798.468 967.211, 797.908 967.557 C 797.262 967.956, 797.470 969.069, 798.480 970.610 C 799.759 972.561, 799.866 973.766, 799.030 976.768 C 798.127 980.010, 796.948 987.867, 794.084 1009.733 C 793.644 1013.094, 793.774 1015.091, 794.449 1015.316 C 795.164 1015.555, 795.562 1033.405, 795.692 1071.083 C 795.798 1101.563, 796.165 1128.837, 796.507 1131.694 C 796.943 1135.327, 798.036 1138.033, 800.145 1140.694 C 805.616 1147.600, 804.829 1147.467, 842.340 1147.800 C 864.279 1147.994, 875.966 1147.755, 875.574 1147.119 C 874.651 1145.626, 876.907 1144.678, 878.411 1145.926 C 879.395 1146.743, 880.057 1146.636, 880.990 1145.512 C 881.680 1144.681, 882.857 1144, 883.606 1144 C 885.577 1144, 890.087 1134.505, 890.676 1129.114 C 890.953 1126.576, 890.916 1124.761, 890.593 1125.081 C 890.270 1125.400, 889.904 1126.887, 889.780 1128.386 C 889.599 1130.578, 889.346 1130.827, 888.491 1129.657 C 887.906 1128.857, 887.612 1126.271, 887.837 1123.910 C 888.212 1119.983, 888.364 1119.778, 889.623 1121.500 C 890.824 1123.141, 890.975 1122.174, 890.807 1113.941 C 890.656 1106.518, 890.539 1105.836, 890.260 1110.750 C 890.064 1114.188, 889.490 1117, 888.984 1117 C 888.477 1117, 888.350 1116.251, 888.701 1115.336 C 889.067 1114.384, 888.929 1113.926, 888.379 1114.266 C 887.850 1114.593, 887.374 1113.654, 887.321 1112.180 C 887.268 1110.706, 887.109 1108.150, 886.967 1106.500 C 886.684 1103.199, 887.560 1092.302, 888.737 1084.500 L 889.491 1079.500 890.065 1087 C 890.381 1091.125, 890.620 1062.775, 890.596 1024 C 890.572 984.088, 890.313 964.347, 890 978.500 C 889.696 992.250, 889.310 1002.600, 889.141 1001.500 C 887.078 988.006, 885.887 969.929, 886.439 960.500 C 887.262 946.471, 888.562 872.568, 888.199 860.500 C 888.033 855, 888.258 848.025, 888.699 845 C 889.211 841.487, 889.691 855.212, 890.028 883 C 890.318 906.925, 890.543 876.325, 890.528 815 C 890.497 689.656, 891.202 700.712, 882.801 693.961 C 879.354 691.190, 877.357 690.424, 872.034 689.831 C 863.273 688.855, 817.760 689.024, 811.601 690.056 M 888.572 712.942 C 887.655 714.368, 887.612 754.945, 888.527 755.860 C 889.822 757.155, 890.019 753.595, 889.770 733.397 C 889.598 719.466, 889.162 712.025, 888.572 712.942 M 888.929 762.750 C 888.890 764.813, 888.718 773.025, 888.547 781 C 887.965 808.084, 888.042 819.482, 888.871 829 C 889.473 835.904, 889.740 827.636, 889.849 798.750 C 889.932 776.888, 889.775 759, 889.500 759 C 889.225 759, 888.968 760.688, 888.929 762.750 M 904.370 809 C 904.370 814.775, 904.535 817.138, 904.737 814.250 C 904.939 811.362, 904.939 806.638, 904.737 803.750 C 904.535 800.862, 904.370 803.225, 904.370 809 M 441.250 858.193 C 440.563 860.774, 440 863.686, 440 864.665 C 440 866.182, 440.231 866.116, 441.557 864.221 C 442.536 862.825, 443.001 860.418, 442.807 857.749 L 442.500 853.500 441.250 858.193 M 440.202 890.055 C 440.011 909.516, 440.129 910.980, 442.426 917.555 C 443.760 921.375, 444.880 923.600, 444.915 922.500 C 444.950 921.400, 444.217 918.250, 443.287 915.500 C 442.020 911.756, 441.446 905.352, 440.999 890 L 440.403 869.500 440.202 890.055 M 888.607 1006.582 C 887.554 1009.327, 887.912 1038, 889 1038 C 889.626 1038, 890 1031.833, 890 1021.500 C 890 1012.425, 889.823 1005, 889.607 1005 C 889.391 1005, 888.941 1005.712, 888.607 1006.582 M 889.360 1051 C 889.360 1056.225, 889.529 1058.362, 889.735 1055.750 C 889.941 1053.138, 889.941 1048.862, 889.735 1046.250 C 889.529 1043.638, 889.360 1045.775, 889.360 1051" stroke="none" fill="#ff8500" fill-rule="evenodd"/><path d="M 444.648 187.008 C 439.753 188.507, 435.434 192.128, 432.665 197.054 L 430 201.795 430 415.582 L 430 629.369 432.079 633.663 C 433.222 636.024, 436.016 639.429, 438.288 641.228 L 442.418 644.500 519.356 644.768 C 594.816 645.031, 596.372 644.998, 600.397 643.016 C 605.780 640.365, 609.536 634.849, 610.984 627.471 C 612.478 619.851, 611.855 580.047, 610.160 574.869 C 608.696 570.395, 604.634 565.788, 600 563.345 C 596.831 561.675, 593.259 561.472, 562.241 561.201 L 527.982 560.902 528.241 508.201 L 528.500 455.500 552 454.984 C 566.155 454.673, 576.494 454.020, 578 453.341 C 582.031 451.523, 587.916 444.961, 588.993 441.085 C 589.541 439.113, 589.981 428.950, 589.972 418.500 C 589.958 402.162, 589.697 398.940, 588.110 395.500 C 583.635 385.805, 577.469 383.917, 549.500 383.679 L 528.500 383.500 528.242 326.064 C 528.068 287.346, 528.320 268.420, 529.017 267.990 C 529.585 267.638, 543.201 267.554, 559.275 267.801 C 595.488 268.360, 598.254 267.939, 605.063 260.837 C 609.182 256.541, 609.961 255.044, 610.908 249.608 C 612.403 241.025, 612.262 210.949, 610.693 203.463 C 609.276 196.708, 605.377 190.816, 600.586 188.191 C 597.774 186.650, 590.837 186.484, 522.500 186.318 C 481.250 186.217, 446.217 186.528, 444.648 187.008 M 529.500 771.094 C 526.200 773.258, 520.317 776.577, 516.428 778.467 C 510.099 781.543, 491.875 794.291, 486.359 799.500 C 485.194 800.600, 482.073 803.300, 479.422 805.500 C 471.140 812.375, 462.700 822.021, 453.173 835.500 C 444.510 847.757, 443.928 848.957, 443.295 855.866 C 442.960 859.515, 442.169 863.400, 441.536 864.500 C 440.707 865.941, 440.572 872.646, 441.052 888.500 C 441.881 915.874, 443.289 922.047, 450.314 929.097 C 455.425 934.227, 465.344 938.320, 470.250 937.325 C 474.056 936.553, 473.793 938.504, 469.568 942.374 C 467.680 944.103, 465.166 947.764, 463.982 950.509 C 462.082 954.912, 461.879 956.856, 462.258 967 C 462.862 983.170, 465.201 990, 472.769 997.682 C 479.237 1004.248, 489.385 1009.884, 497.646 1011.498 C 499.377 1011.837, 501.627 1013.035, 502.646 1014.162 C 504.339 1016.032, 504.500 1018.223, 504.500 1039.355 L 504.500 1062.500 507.780 1069.454 C 509.584 1073.279, 511.678 1077.104, 512.433 1077.954 C 513.187 1078.804, 515.480 1082.763, 517.527 1086.750 C 519.574 1090.737, 521.571 1094, 521.964 1094 C 522.357 1094, 523.193 1095.129, 523.822 1096.508 C 525.964 1101.210, 536.326 1114.117, 539.117 1115.561 C 540.804 1116.433, 544.817 1117, 549.302 1117 C 558.281 1117, 562.307 1114.803, 565.811 1107.992 C 568.191 1103.364, 568.319 1098.327, 566.424 1083.858 L 565.816 1079.215 573.253 1073.715 C 586.585 1063.856, 590.496 1057.273, 591.320 1043.310 C 591.585 1038.805, 592.411 1034.251, 593.155 1033.188 C 593.899 1032.126, 598.106 1027.367, 602.504 1022.612 C 611.646 1012.728, 617.250 1004.090, 619.465 996.473 C 621.396 989.829, 621.389 987.499, 619.421 981.724 C 617.405 975.805, 611.992 970.885, 604.381 968.054 C 601.146 966.850, 597.150 964.624, 595.500 963.107 C 593.850 961.590, 590.475 958.831, 588 956.976 C 585.525 955.122, 579.675 949.981, 575 945.552 C 570.325 941.123, 564.250 936.375, 561.500 935 C 556.973 932.737, 555.223 932.485, 543 932.342 C 535.575 932.255, 528.456 932.143, 527.180 932.092 C 525.670 932.032, 522.599 929.590, 518.391 925.105 C 514.834 921.313, 510.618 917.670, 509.023 917.009 C 506.151 915.820, 497.479 916.057, 493.429 917.435 C 491.654 918.039, 491.181 917.548, 490.115 913.990 C 489.374 911.516, 486.884 907.754, 483.946 904.671 C 479.517 900.021, 479.020 899.037, 479.010 894.905 C 478.994 887.700, 480.029 887.236, 497 886.839 L 511.500 886.500 519.500 882.596 C 524.714 880.051, 529.640 878.446, 533.645 877.986 C 548.618 876.266, 559.387 865.707, 564.994 847.246 C 567.897 837.689, 571.742 833.479, 583.053 827.472 C 598.652 819.188, 605.314 810.699, 605.396 799 C 605.454 790.755, 603.484 786.956, 597.244 783.289 C 592.855 780.708, 591.491 780.462, 579 779.985 C 565.585 779.473, 565.446 779.443, 556.887 775.235 C 552.150 772.906, 547.946 771, 547.545 771 C 547.144 771, 545.671 770.100, 544.273 769 C 540.496 766.029, 536.317 766.621, 529.500 771.094 M 690.135 776.539 C 687.592 777.643, 682.331 778, 668.585 778 C 650.543 778, 637.100 779.735, 631.365 782.805 C 627.012 785.134, 622.281 791.659, 620.997 797.104 C 620.297 800.072, 618.436 805.075, 616.862 808.221 C 613.501 814.940, 613.271 819.115, 615.954 824.668 C 619.327 831.649, 626.808 836.935, 635.668 838.598 L 639.287 839.276 635.575 841.516 C 629.653 845.090, 626.055 849.035, 622.365 856 C 620.471 859.575, 617.477 864.716, 615.711 867.424 C 612.657 872.107, 612.506 872.790, 612.633 881.424 C 612.869 897.511, 618.198 912.442, 627.326 922.595 C 633.212 929.142, 638.418 932.674, 646.509 935.611 C 652.129 937.651, 654.917 938, 665.578 938 C 680.379 938, 681.310 938.318, 693.458 947.522 C 706.841 957.662, 707.196 958.108, 709.117 967.173 C 709.738 970.103, 711.153 974.291, 712.261 976.480 C 714.873 981.642, 725.134 992.302, 730.537 995.469 C 732.863 996.832, 735.151 998.746, 735.623 999.723 C 736.094 1000.701, 736.709 1013.200, 736.990 1027.500 L 737.500 1053.500 740.500 1057.635 C 744.713 1063.441, 749.168 1066.248, 754.639 1066.543 C 765.028 1067.102, 773.879 1059.685, 781.803 1043.776 C 790.456 1026.406, 792.802 1020.103, 793.629 1012 C 793.882 1009.525, 794.500 1005.475, 795.004 1003 C 795.507 1000.525, 796.416 994.225, 797.023 989 C 797.630 983.775, 798.575 978.062, 799.123 976.305 C 799.903 973.803, 799.769 972.577, 798.505 970.648 C 797.481 969.085, 797.263 967.956, 797.908 967.557 C 798.468 967.211, 798.878 964.127, 798.819 960.704 C 798.761 957.280, 799.026 953.492, 799.409 952.285 C 799.850 950.897, 799.492 949.155, 798.435 947.541 C 797.279 945.776, 797.073 944.606, 797.766 943.745 C 799.505 941.587, 800.265 936.024, 799.025 934.530 C 798.183 933.516, 798.148 931.650, 798.895 927.612 C 799.681 923.359, 799.593 920.977, 798.516 917.291 C 797.745 914.656, 796.662 908.675, 796.108 904 C 792.280 871.658, 787.389 857.934, 778.667 855.055 C 775.770 854.099, 774.573 854.291, 769.906 856.464 C 765.240 858.636, 763.092 858.982, 754.218 858.990 C 742.822 859.001, 738.904 857.879, 733.372 853.022 C 726.590 847.067, 725.015 846.681, 704.843 846.018 L 686.185 845.406 680.343 841.465 C 674.751 837.693, 674.103 837.508, 665.250 837.165 C 660.163 836.968, 656 836.408, 656 835.920 C 656 835.433, 658.235 833.901, 660.967 832.517 C 667.691 829.110, 675.918 829.075, 683.238 832.423 C 697.726 839.050, 698.710 839.281, 714.590 839.770 C 723.821 840.054, 731.713 839.798, 734.919 839.111 C 748.479 836.203, 757.943 822.425, 752.243 813.889 C 748.487 808.264, 731.236 793.950, 717 784.646 C 701.741 774.673, 697.430 773.372, 690.135 776.539" stroke="none" fill="#fe2a5c" fill-rule="evenodd"/><path d="M 442.256 848.578 C 439.709 855.172, 438.875 866.074, 439.203 888.500 L 439.539 911.500 439.770 887.064 C 439.969 865.865, 440.274 861.652, 442.066 855.263 C 444.174 847.753, 444.301 843.286, 442.256 848.578" stroke="none" fill="#056976" fill-rule="evenodd"/><path d="M 888.572 712.942 C 887.655 714.368, 887.612 754.945, 888.527 755.860 C 889.822 757.155, 890.019 753.595, 889.770 733.397 C 889.598 719.466, 889.162 712.025, 888.572 712.942 M 888.929 762.750 C 888.890 764.813, 888.718 773.025, 888.547 781 C 887.965 808.084, 888.042 819.482, 888.871 829 C 889.473 835.904, 889.740 827.636, 889.849 798.750 C 889.932 776.888, 889.775 759, 889.500 759 C 889.225 759, 888.968 760.688, 888.929 762.750 M 1114 785.917 C 1114 788.879, 1113.518 790.994, 1112.788 791.237 C 1111.854 791.549, 1111.837 792.541, 1112.716 795.571 C 1113.488 798.233, 1113.612 803.208, 1113.099 811 C 1112.546 819.413, 1112.678 823.305, 1113.590 825.500 C 1114.638 828.021, 1114.850 824.709, 1114.918 804.750 C 1114.963 791.688, 1114.775 781, 1114.500 781 C 1114.225 781, 1114 783.212, 1114 785.917 M 904.370 809 C 904.370 814.775, 904.535 817.138, 904.737 814.250 C 904.939 811.362, 904.939 806.638, 904.737 803.750 C 904.535 800.862, 904.370 803.225, 904.370 809 M 888.531 845.166 C 888.183 848.100, 888.033 855, 888.199 860.500 C 888.558 872.436, 887.265 946.102, 886.435 960.946 C 886.114 966.692, 886.347 976.142, 886.952 981.946 C 887.557 987.751, 888.279 994.726, 888.556 997.446 C 889.587 1007.579, 890.005 1002.664, 890.172 978.417 C 890.394 946.325, 889.851 840.603, 889.462 840.166 C 889.299 839.982, 888.880 842.232, 888.531 845.166 M 1092.750 849.689 C 1091.787 849.941, 1091 850.811, 1091 851.623 C 1091 852.760, 1092.160 853.046, 1096.053 852.868 C 1101.877 852.603, 1103.276 851.436, 1099.495 849.998 C 1096.774 848.964, 1095.712 848.915, 1092.750 849.689 M 1078 851.533 C 1078 852.492, 1079.435 852.874, 1082.932 852.847 C 1086.449 852.820, 1087.727 852.451, 1087.386 851.562 C 1086.703 849.784, 1078 849.757, 1078 851.533 M 888.607 1006.582 C 887.554 1009.327, 887.912 1038, 889 1038 C 889.626 1038, 890 1031.833, 890 1021.500 C 890 1012.425, 889.823 1005, 889.607 1005 C 889.391 1005, 888.941 1005.712, 888.607 1006.582 M 993.597 1017.750 C 993.069 1027.953, 993.217 1046.131, 993.890 1053.750 C 994.076 1055.866, 995.482 1055.132, 995.804 1052.750 C 997.400 1040.918, 996.818 1005, 995.030 1005 C 994.605 1005, 993.960 1010.737, 993.597 1017.750 M 889.360 1051 C 889.360 1056.225, 889.529 1058.362, 889.735 1055.750 C 889.941 1053.138, 889.941 1048.862, 889.735 1046.250 C 889.529 1043.638, 889.360 1045.775, 889.360 1051 M 888.594 1084.686 C 887.432 1093.839, 886.711 1103.511, 886.967 1106.500 C 887.109 1108.150, 887.268 1110.706, 887.321 1112.180 C 887.374 1113.654, 887.850 1114.593, 888.379 1114.266 C 888.929 1113.926, 889.067 1114.384, 888.701 1115.336 C 888.350 1116.251, 888.499 1117, 889.031 1117 C 889.564 1117, 890.084 1114.188, 890.187 1110.750 C 890.414 1103.140, 889.908 1080.622, 889.499 1080.186 C 889.338 1080.013, 888.930 1082.038, 888.594 1084.686 M 887.837 1123.910 C 887.597 1126.428, 887.946 1128.884, 888.682 1129.851 C 889.372 1130.758, 889.977 1131.275, 890.027 1131 C 890.708 1127.255, 890.442 1122.619, 889.470 1121.290 C 888.423 1119.858, 888.188 1120.235, 887.837 1123.910" stroke="none" fill="#fb9f08" fill-rule="evenodd"/></svg>